<svg xmlns="http://www.w3.org/2000/svg" xmlns:gn="http://www.goodnotes.com/gn-svg" viewBox="0 0 1320 980" width="1320" height="980">
  <style>
    .t { font-family: "Comic Sans MS", "Caveat", "Patrick Hand", system-ui, sans-serif; }
    .title { font-size: 28px; fill: #1e1e1e; font-weight: 700; }
    .subtitle { font-size: 15px; fill: #495057; }
    .box-label { font-size: 16px; fill: #1e1e1e; }
    .box-label-sm { font-size: 13px; fill: #1e1e1e; }
    .box-label-xs { font-size: 12px; fill: #1e1e1e; }
    .note { font-size: 13px; fill: #495057; font-style: italic; }
  </style>

  <!-- Title -->
  <text x="40" y="38" class="t title">codewizard-sherpa · Local POC architecture</text>
  <text x="40" y="62" class="t subtitle">Phases 0–2: deterministic context-gathering pipeline · No LLM in gather</text>

  <!-- Row 0: Target repo -->
  <g>
    <path d="M 350 100 Q 348 96 354 96 L 612 95 Q 618 96 617 100 L 618 158 Q 617 162 612 162 L 354 163 Q 348 162 350 158 Z"
          fill="#f1f3f5" stroke="#1e1e1e" stroke-width="2" stroke-linejoin="round" />
    <text x="483" y="124" text-anchor="middle" class="t box-label">Target repo</text>
    <text x="483" y="146" text-anchor="middle" class="t box-label-sm">(any directory)</text>
  </g>

  <!-- Arrow: target repo -> CLI -->
  <path d="M 483 165 Q 481 185 482 205" fill="none" stroke="#1e1e1e" stroke-width="2" stroke-linecap="round"/>
  <path d="M 478 200 L 482 210 L 487 200" fill="none" stroke="#1e1e1e" stroke-width="2" stroke-linejoin="round"/>

  <!-- Config (left) -->
  <g>
    <path d="M 60 210 Q 58 206 64 206 L 282 207 Q 288 208 287 212 L 288 264 Q 287 268 282 268 L 64 269 Q 58 268 60 264 Z"
          fill="#fff3bf" stroke="#1e1e1e" stroke-width="2" stroke-linejoin="round"/>
    <text x="174" y="232" text-anchor="middle" class="t box-label-sm">.codegenie.yaml</text>
    <text x="174" y="252" text-anchor="middle" class="t box-label-xs">(config loader)</text>
  </g>

  <!-- CLI -->
  <g>
    <path d="M 332 210 Q 330 206 336 206 L 632 207 Q 638 208 637 212 L 638 282 Q 637 286 632 286 L 336 287 Q 330 286 332 282 Z"
          fill="#dbe4ff" stroke="#1e1e1e" stroke-width="2" stroke-linejoin="round"/>
    <text x="484" y="242" text-anchor="middle" class="t box-label">codegenie gather &lt;repo&gt;</text>
    <text x="484" y="266" text-anchor="middle" class="t box-label-sm">(Python CLI · click)</text>
  </g>

  <!-- Arrow: config -> CLI -->
  <path d="M 290 240 L 330 240" fill="none" stroke="#1e1e1e" stroke-width="2" stroke-linecap="round"/>
  <path d="M 322 235 L 332 240 L 322 245" fill="none" stroke="#1e1e1e" stroke-width="2" stroke-linejoin="round"/>

  <!-- CI fence sidecar -->
  <g>
    <path d="M 1000 210 Q 998 206 1004 206 L 1282 207 Q 1288 208 1287 212 L 1288 354 Q 1287 358 1282 358 L 1004 359 Q 998 358 1000 354 Z"
          fill="#ffe8cc" stroke="#1e1e1e" stroke-width="2" stroke-dasharray="6,4" stroke-linejoin="round"/>
    <text x="1144" y="240" text-anchor="middle" class="t box-label">CI fence</text>
    <text x="1144" y="262" text-anchor="middle" class="t box-label-sm">(import-linter)</text>
    <text x="1144" y="288" text-anchor="middle" class="t box-label-sm">Forbids any LLM import</text>
    <text x="1144" y="308" text-anchor="middle" class="t box-label-sm">anywhere in gather/</text>
    <text x="1144" y="336" text-anchor="middle" class="t note">— ADR 0002</text>
  </g>

  <!-- Arrow CLI -> Coordinator -->
  <path d="M 484 290 Q 482 318 484 348" fill="none" stroke="#1e1e1e" stroke-width="2" stroke-linecap="round"/>
  <path d="M 478 342 L 484 354 L 490 342" fill="none" stroke="#1e1e1e" stroke-width="2" stroke-linejoin="round"/>

  <!-- Coordinator -->
  <g>
    <path d="M 290 356 Q 288 352 294 352 L 678 353 Q 684 354 683 358 L 684 452 Q 683 456 678 456 L 294 457 Q 288 456 290 452 Z"
          fill="#d3f9d8" stroke="#1e1e1e" stroke-width="2" stroke-linejoin="round"/>
    <text x="486" y="388" text-anchor="middle" class="t box-label">Coordinator (asyncio)</text>
    <text x="486" y="412" text-anchor="middle" class="t box-label-sm">bounded pool · per-probe timeout</text>
    <text x="486" y="432" text-anchor="middle" class="t box-label-sm">failure isolation</text>
  </g>

  <!-- Probe Registry -->
  <g>
    <path d="M 720 366 Q 718 362 724 362 L 960 363 Q 966 364 965 368 L 966 438 Q 965 442 960 442 L 724 443 Q 718 442 720 438 Z"
          fill="#fff3bf" stroke="#1e1e1e" stroke-width="2" stroke-linejoin="round"/>
    <text x="842" y="394" text-anchor="middle" class="t box-label">Probe Registry</text>
    <text x="842" y="418" text-anchor="middle" class="t box-label-sm">@register_probe</text>
  </g>

  <!-- Arrow Coord <-> Registry -->
  <path d="M 686 402 L 718 402" fill="none" stroke="#1e1e1e" stroke-width="2" stroke-linecap="round"/>
  <path d="M 710 397 L 720 402 L 710 407" fill="none" stroke="#1e1e1e" stroke-width="2" stroke-linejoin="round"/>

  <!-- Arrow Coord -> Probes -->
  <path d="M 486 458 Q 484 488 486 518" fill="none" stroke="#1e1e1e" stroke-width="2" stroke-linecap="round"/>
  <path d="M 480 512 L 486 524 L 492 512" fill="none" stroke="#1e1e1e" stroke-width="2" stroke-linejoin="round"/>

  <!-- Probes -->
  <g>
    <path d="M 220 524 Q 218 520 224 520 L 752 521 Q 758 522 757 526 L 758 658 Q 757 662 752 662 L 224 663 Q 218 662 220 658 Z"
          fill="#ffe3e3" stroke="#1e1e1e" stroke-width="2" stroke-linejoin="round"/>
    <text x="488" y="554" text-anchor="middle" class="t box-label">Probes (Layers A–G)</text>
    <text x="488" y="582" text-anchor="middle" class="t box-label-xs">Layer A — Node.js:</text>
    <text x="488" y="602" text-anchor="middle" class="t box-label-xs">LanguageDetection · NodeBuildSystem · NodeManifest · CI · Deployment · TestInventory</text>
    <text x="488" y="628" text-anchor="middle" class="t box-label-xs">Layer B–G:</text>
    <text x="488" y="648" text-anchor="middle" class="t box-label-xs">IndexHealth (B2) · BuildGraph · SCIPIndex · NodeReflection · GeneratedCode · …</text>
  </g>

  <!-- Cache (left of probes) -->
  <g>
    <path d="M 30 528 Q 28 524 34 524 L 200 525 Q 206 526 205 530 L 206 656 Q 205 660 200 660 L 34 661 Q 28 660 30 656 Z"
          fill="#d0bfff" stroke="#1e1e1e" stroke-width="2" stroke-linejoin="round"/>
    <text x="117" y="558" text-anchor="middle" class="t box-label">Cache</text>
    <text x="117" y="584" text-anchor="middle" class="t box-label-xs">.codegenie/cache/</text>
    <text x="117" y="606" text-anchor="middle" class="t box-label-xs">content-addressed</text>
    <text x="117" y="630" text-anchor="middle" class="t box-label-xs">(declared_inputs)</text>
  </g>

  <!-- Bi-directional arrow probes <-> cache -->
  <path d="M 220 580 L 207 580" fill="none" stroke="#1e1e1e" stroke-width="2" stroke-linecap="round"/>
  <path d="M 213 575 L 207 580 L 213 585" fill="none" stroke="#1e1e1e" stroke-width="2" stroke-linejoin="round"/>
  <path d="M 207 612 L 220 612" fill="none" stroke="#1e1e1e" stroke-width="2" stroke-linecap="round"/>
  <path d="M 214 607 L 220 612 L 214 617" fill="none" stroke="#1e1e1e" stroke-width="2" stroke-linejoin="round"/>

  <!-- Subprocess allowlist -->
  <g>
    <path d="M 780 528 Q 778 524 784 524 L 1020 525 Q 1026 526 1025 530 L 1026 612 Q 1025 616 1020 616 L 784 617 Q 778 616 780 612 Z"
          fill="#fff3bf" stroke="#1e1e1e" stroke-width="2" stroke-linejoin="round"/>
    <text x="902" y="560" text-anchor="middle" class="t box-label-sm">Subprocess allowlist</text>
    <text x="902" y="584" text-anchor="middle" class="t box-label-xs">(chokepoint — ADR 0012)</text>
    <text x="902" y="604" text-anchor="middle" class="t note">single exec(...) call site</text>
  </g>

  <!-- Arrow probes -> allowlist -->
  <path d="M 760 580 L 778 580" fill="none" stroke="#1e1e1e" stroke-width="2" stroke-linecap="round"/>
  <path d="M 770 575 L 780 580 L 770 585" fill="none" stroke="#1e1e1e" stroke-width="2" stroke-linejoin="round"/>

  <!-- External tools -->
  <g>
    <path d="M 780 640 Q 778 636 784 636 L 1020 637 Q 1026 638 1025 642 L 1026 750 Q 1025 754 1020 754 L 784 755 Q 778 754 780 750 Z"
          fill="#e9ecef" stroke="#1e1e1e" stroke-width="2" stroke-linejoin="round"/>
    <text x="902" y="670" text-anchor="middle" class="t box-label-sm">External tools</text>
    <text x="902" y="694" text-anchor="middle" class="t box-label-xs">semgrep · syft · grype</text>
    <text x="902" y="714" text-anchor="middle" class="t box-label-xs">gitleaks · scip-typescript</text>
    <text x="902" y="734" text-anchor="middle" class="t box-label-xs">tree-sitter</text>
  </g>

  <!-- Arrow allowlist -> external tools -->
  <path d="M 902 618 L 902 636" fill="none" stroke="#1e1e1e" stroke-width="2" stroke-linecap="round"/>
  <path d="M 897 628 L 902 638 L 907 628" fill="none" stroke="#1e1e1e" stroke-width="2" stroke-linejoin="round"/>

  <!-- Arrow probes -> validate -->
  <path d="M 486 664 Q 484 700 486 730" fill="none" stroke="#1e1e1e" stroke-width="2" stroke-linecap="round"/>
  <path d="M 480 724 L 486 736 L 492 724" fill="none" stroke="#1e1e1e" stroke-width="2" stroke-linejoin="round"/>

  <!-- Pydantic validator -->
  <g>
    <path d="M 80 738 Q 78 734 84 734 L 320 735 Q 326 736 325 740 L 326 800 Q 325 804 320 804 L 84 805 Q 78 804 80 800 Z"
          fill="#c5f6fa" stroke="#1e1e1e" stroke-width="2" stroke-linejoin="round"/>
    <text x="202" y="766" text-anchor="middle" class="t box-label-sm">Pydantic validator</text>
    <text x="202" y="788" text-anchor="middle" class="t box-label-xs">(ADR 0010)</text>
  </g>

  <!-- Sanitizer -->
  <g>
    <path d="M 360 738 Q 358 734 364 734 L 620 735 Q 626 736 625 740 L 626 800 Q 625 804 620 804 L 364 805 Q 358 804 360 800 Z"
          fill="#c5f6fa" stroke="#1e1e1e" stroke-width="2" stroke-linejoin="round"/>
    <text x="492" y="766" text-anchor="middle" class="t box-label-sm">Sanitizer</text>
    <text x="492" y="788" text-anchor="middle" class="t box-label-xs">(two-pass — ADR 0008)</text>
  </g>

  <!-- Output writer -->
  <g>
    <path d="M 660 738 Q 658 734 664 734 L 900 735 Q 906 736 905 740 L 906 800 Q 905 804 900 804 L 664 805 Q 658 804 660 800 Z"
          fill="#c5f6fa" stroke="#1e1e1e" stroke-width="2" stroke-linejoin="round"/>
    <text x="782" y="766" text-anchor="middle" class="t box-label-sm">Output Writer</text>
    <text x="782" y="788" text-anchor="middle" class="t box-label-xs">YAML + JSON</text>
  </g>

  <!-- Arrows along the chain -->
  <path d="M 328 770 L 358 770" fill="none" stroke="#1e1e1e" stroke-width="2" stroke-linecap="round"/>
  <path d="M 350 765 L 360 770 L 350 775" fill="none" stroke="#1e1e1e" stroke-width="2" stroke-linejoin="round"/>
  <path d="M 628 770 L 658 770" fill="none" stroke="#1e1e1e" stroke-width="2" stroke-linecap="round"/>
  <path d="M 650 765 L 660 770 L 650 775" fill="none" stroke="#1e1e1e" stroke-width="2" stroke-linejoin="round"/>

  <!-- Arrow writer -> artifacts -->
  <path d="M 782 806 Q 562 840 432 864" fill="none" stroke="#1e1e1e" stroke-width="2" stroke-linecap="round"/>
  <path d="M 438 856 L 426 866 L 440 868" fill="none" stroke="#1e1e1e" stroke-width="2" stroke-linejoin="round"/>

  <!-- Artifacts -->
  <g>
    <path d="M 220 856 Q 218 852 224 852 L 870 853 Q 876 854 875 858 L 876 952 Q 875 956 870 956 L 224 957 Q 218 956 220 952 Z"
          fill="#fff9db" stroke="#1e1e1e" stroke-width="2" stroke-linejoin="round"/>
    <text x="547" y="882" text-anchor="middle" class="t box-label">.codegenie/context/</text>
    <text x="290" y="908" class="t box-label-xs">├─ repo-context.yaml</text>
    <text x="640" y="908" class="t note">(human-facing artifact)</text>
    <text x="290" y="928" class="t box-label-xs">├─ raw/*.json</text>
    <text x="640" y="928" class="t note">(per-probe evidence)</text>
    <text x="290" y="948" class="t box-label-xs">└─ audit/log.jsonl</text>
    <text x="640" y="948" class="t note">(provenance, ADR 0004)</text>
  </g>

  <!-- Legend hint to CI fence -->
  <path d="M 998 350 Q 870 460 760 524" fill="none" stroke="#fd7e14" stroke-width="2" stroke-dasharray="4,4" stroke-linecap="round"/>
  <text x="980" y="500" class="t note" fill="#fd7e14">enforced across all probe modules</text>
</svg>
